/* XPM */
static char * capi_left_xpm[] = {
"32 32 34 1",
" 	c #0E1F05",
".	c #226723",
"+	c #17360E",
"@	c #247629",
"#	c #256D24",
"$	c #196823",
"%	c #277B2A",
"&	c #0E4916",
"*	c #166222",
"=	c #1D6523",
"-	c #166623",
";	c #106121",
">	c #1F6723",
",	c #146422",
"'	c #216723",
")	c #176322",
"!	c #1F6523",
"~	c #1C6422",
"{	c #227529",
"]	c #1D6522",
"^	c #0E5E20",
"/	c #1F6623",
"(	c #106122",
"_	c #1A6824",
":	c #000000",
"<	c #4F2C14",
"[	c #885B39",
"}	c #226623",
"|	c #D78244",
"1	c #196824",
"2	c #0B5F21",
"3	c #2A7D2B",
"4	c #1A6B25",
"5	c #176723",
"                                ",
"   .+++ +++++ @#$$$$$% &&&&+++* ",
"  =++++ +++++ -#$$$$$% &&&++++* ",
" .+++++ +++++ ;#$$$$$% >++++++* ",
" ++++++ +++++ ,#$$$$$% ++++++') ",
" !!!!!! !!!!~ {%%%%%%{ ~!!!!!!! ",
"                                ",
" +++]^~+++++/(((( = &&&&&_>  ++ ",
" ++++ !++++++++++++ +++++++  ++ ",
" ++++ !+++++::::+++ +++++++) ++ ",
" ***+ !+++++:<<:+++ +++++++' ++ ",
"     ::::::::<[:             ++ ",
" % }::[[||||||[::  .+! ##--- ++ ",
" % +:[[[||::||||::+++! #$$$$ && ",
" % +:[[||||||||||::++! #$$$$ && ",
" % +:[||||||||||||:::::::$$$ && ",
"    :[||||||||||||||||||::$$    ",
" +++::::::::|||||||||||||:%% 11 ",
" ++++++'= %::|||||||[[|||:   22 ",
" ++++++++ %+:||||||||||||:+++++ ",
"          %+:|||||[[||[[|:+++++ ",
" $$ &&&++ %+::|||||||||||::!!!! ",
" $$ +++++ %++:||||||||||||:     ",
" $$ &++++ %++:<||::::||||<::&&& ",
" $$ &++++ %+::<<:::+:::|<<<:++. ",
" $$ +++++ %+:<<<:::++:::<<<:+=  ",
" $$ +++++ %+:<<::::+::::<<::.   ",
" $$ +++++   :<:: :: :: :<<:     ",
"  $ &++++ !)::: )++++&&::::$$34 ",
" 5$ &&++& !++++++++++++&& %$$$$ ",
" &5 &&&++ !++++++++++++&& %$$$$ ",
"                                "};
