/* XPM */
static char * capi_front_xpm[] = {
"32 32 39 1",
" 	c #0E1F05",
".	c #226723",
"+	c #17360E",
"@	c #247629",
"#	c #256D24",
"$	c #196823",
"%	c #277B2A",
"&	c #0E4916",
"*	c #166222",
"=	c #1D6523",
"-	c #166623",
";	c #106121",
">	c #1F6723",
",	c #146422",
"'	c #216723",
")	c #176322",
"!	c #1F6523",
"~	c #1C6422",
"{	c #227529",
"]	c #1D6522",
"^	c #0E5E20",
"/	c #1F6623",
"(	c #106122",
"_	c #1A6824",
":	c #000000",
"<	c #4F2C14",
"[	c #226623",
"}	c #256723",
"|	c #246623",
"1	c #D78244",
"2	c #885B39",
"3	c #246723",
"4	c #247829",
"5	c #196824",
"6	c #0B5F21",
"7	c #0E6021",
"8	c #2A7D2B",
"9	c #1A6B25",
"0	c #176723",
"                                ",
"   .+++ +++++ @#$$$$$% &&&&+++* ",
"  =++++ +++++ -#$$$$$% &&&++++* ",
" .+++++ +++++ ;#$$$$$% >++++++* ",
" ++++++ +++++ ,#$$$$$% ++++++') ",
" !!!!!! !!!!~ {%%%%%%{ ~!!!!!!! ",
"                                ",
" +++]^~+++++/(((( = &&&&&_>  ++ ",
" ++++ !++++++++++++ +++++++  ++ ",
" ++++ !+++++:::++:::+++++++) ++ ",
" ***+ !+++++:<:++:<:+++++++' ++ ",
"            :<::::<:         ++ ",
" % [}}}}|   :112211:+! ##--- ++ ",
" % ++3+3++++::2222::+! #$$$$ && ",
" % +++++++++:122221:+! #$$$$ && ",
" % +++++++++:122221:+! #$$$$ && ",
"            ::::::::+] #$$$$    ",
" ++++++)& %::111111::; 4%%%% 55 ",
" ++++++'= %:11111111:;       66 ",
" ++++++++ %:11111111:; ]+++++++ ",
"          %:11111111:; ++++++++ ",
" $$ &&&++ %:11111111:7 ~!!!!!!! ",
" $$ +++++ %:<111111<:           ",
" $$ &++++ %:<<::::<<:>_&&&&&&&& ",
" $$ &++++ %:<<::::<<:&&++&&&++. ",
" $$ +++++ %::<:: :<<:++++++++=  ",
" $$ +++++ %+:::  :<<:+++++++.   ",
" $$ +++++   :::  :<::           ",
"  $ &++++ !)    ):::+&&&& %$$89 ",
" 0$ &&++& !++++++++++++&& %$$$$ ",
" &0 &&&++ !++++++++++++&& %$$$$ ",
"                                "};
