/* XPM */
static char * capi_right_xpm[] = {
"32 32 38 1",
" 	c #0E1F05",
".	c #226723",
"+	c #17360E",
"@	c #247629",
"#	c #256D24",
"$	c #196823",
"%	c #277B2A",
"&	c #0E4916",
"*	c #166222",
"=	c #1D6523",
"-	c #166623",
";	c #106121",
">	c #1F6723",
",	c #146422",
"'	c #216723",
")	c #176322",
"!	c #1F6523",
"~	c #1C6422",
"{	c #227529",
"]	c #1D6522",
"^	c #0E5E20",
"/	c #1F6623",
"(	c #106122",
"_	c #1A6824",
":	c #000000",
"<	c #4F2C14",
"[	c #885B39",
"}	c #226623",
"|	c #256723",
"1	c #246623",
"2	c #D78244",
"3	c #246723",
"4	c #196824",
"5	c #0B5F21",
"6	c #0E6021",
"7	c #2A7D2B",
"8	c #1A6B25",
"9	c #176723",
"                                ",
"   .+++ +++++ @#$$$$$% &&&&+++* ",
"  =++++ +++++ -#$$$$$% &&&++++* ",
" .+++++ +++++ ;#$$$$$% >++++++* ",
" ++++++ +++++ ,#$$$$$% ++++++') ",
" !!!!!! !!!!~ {%%%%%%{ ~!!!!!!! ",
"                                ",
" +++]^~+++++/(((( = &&&&&_>  ++ ",
" ++++ !++++++++++++ +++++++  ++ ",
" ++++ !+++++++++::::+++++++) ++ ",
" ***+ !+++++++++:<<:+++++++' ++ ",
"                :[<::::::::  ++ ",
" % }||||1      ::[222222[[:: ++ ",
" % ++3+3++++++::2222::22[[[: && ",
" % ++++++++++::2222222222[[: && ",
" % ++++:::::::222222222222[: && ",
"      ::222222222222222222[:    ",
" +++++:2222222222222:::::::: 44 ",
" +++++:222[[2222222::;       55 ",
" +++++:222222222222:.; ]+++++++ ",
"      :2[[22[[22222:.; ++++++++ ",
" $$ &::22222222222::]6 ~!!!!!!! ",
" $$ +:222222222222:             ",
" $$ ::<2222::::22<:++>_&&&&&&&& ",
" $$ :<<<2:::+:::<<::+&&++&&&++. ",
" $$ :<<<:::++:::<<<:+++++++++=  ",
" $$ ::<<::::+::::<<:++++++++.   ",
" $$ +:<<: :: :: ::<:            ",
"  $ &:::: !)    ):::+&&&& %$$78 ",
" 9$ &&++& !++++++++++++&& %$$$$ ",
" &9 &&&++ !++++++++++++&& %$$$$ ",
"                                "};
