/* XPM */
static char * closed_salida_xpm[] = {
"32 32 57 1",
" 	c #0E1F05",
".	c #226723",
"+	c #17360E",
"@	c #247629",
"#	c #256D24",
"$	c #196823",
"%	c #277B2A",
"&	c #0E4916",
"*	c #166222",
"=	c #1D6523",
"-	c #166623",
";	c #106121",
">	c #1F6723",
",	c #146422",
"'	c #216723",
")	c #176322",
"!	c #1F6523",
"~	c #131313",
"{	c #141414",
"]	c #121212",
"^	c #0D0D0D",
"/	c #1C6422",
"(	c #090909",
"_	c #0E0E0E",
":	c #1B1B1B",
"<	c #1F1F1F",
"[	c #202020",
"}	c #1E1E1E",
"|	c #171717",
"1	c #161616",
"2	c #1A1A1A",
"3	c #0A0A0A",
"4	c #1D6522",
"5	c #0E5E20",
"6	c #151515",
"7	c #181818",
"8	c #212121",
"9	c #060606",
"0	c #1A6824",
"a	c #0B0B0B",
"b	c #1D1D1D",
"c	c #191919",
"d	c #111111",
"e	c #080808",
"f	c #020202",
"g	c #101010",
"h	c #050505",
"i	c #226623",
"j	c #030303",
"k	c #1C1C1C",
"l	c #040404",
"m	c #196824",
"n	c #0B5F21",
"o	c #070707",
"p	c #2A7D2B",
"q	c #1A6B25",
"r	c #176723",
"                                ",
"   .+++ +++++ @#$$$$$% &&&&+++* ",
"  =++++ +++++ -#$$$$$% &&&++++* ",
" .+++++ +++++ ;#$$$$$% >++++++* ",
" ++++++ +++++ ,#$$$$$% ++++++') ",
" !!!!!! !!!!~{~]~~~~^^ /!!!!!!! ",
"         (_:<[}|}[[}123         ",
" +++45/+_267<8[|[88}7}]9&0>  ++ ",
" ++++ !a]6|bc}}|}[}c<[|de++  ++ ",
" ++++ (]66}8b16{661b88}6d(+) ++ ",
" ***+9d|b7}}|661666|}[}|6~e' ++ ",
"    fg6b8<|6|}[<<[}||17}[}]h ++ ",
" % ih]17}}61}888888[}1b88}~h ++ ",
" % +(6}}761}88[[8888[1|}}7{e && ",
" % 9]}88}66[8}||}<[8<1{|7}}]j&& ",
" % h~}<<}66[[711||7[[66k}8[{l&& ",
"   j]||||{1<8}}}}}}8<1{|7}}~j   ",
" ++h~}[[}66[[7||||7[[66}}7|]fmm ",
" ++j]}[[}66}8[<<<<[8}6|[8<b~jnn ",
" +++({1||1{1}888888}16}88[|dh++ ",
"    (]6}<b|6|}[<<[}|6|}88}{9+++ ",
" $$ 9d6}<c}}|616666|}}c}}|dj!!! ",
" $$ +(d6|}88}|{6166}88}|6](     ",
" $$ &+9g6}888b7}<b|}8[}6de&&&&& ",
" $$ &++9d7}[<7}8[|{|b|6dh&&&++. ",
" $$ ++++(c77b|}[}6{{|1d9+++++=  ",
" $$ +++++(|2{]~~~]d~:2ah++++.   ",
" $$ +++++ oojjjjjjjl(oh         ",
"  $ &++++ !)    )++++&&&& %$$pq ",
" r$ &&++& !++++++++++++&& %$$$$ ",
" &r &&&++ !++++++++++++&& %$$$$ ",
"                                "};
