/* XPM */
static char * DuckSpriteSheet_xpm[] = {
"32 32 9 1",
" 	c None",
".	c #FFCC80",
"+	c #212121",
"@	c #FFB74D",
"#	c #EF6C00",
"$	c #F4511E",
"%	c #BF360C",
"&	c #F1AA03",
"*	c #D84315",
"                                ",
"                                ",
"                                ",
"                                ",
"                                ",
"                                ",
"                                ",
"                                ",
"         ....                   ",
"        +@@+@.                  ",
"        ##@@@@                  ",
"      ##$$#@@.                  ",
"     #$%%%$@@. ...              ",
"          &&@..@@@...@&         ",
"           &@.@@@@@.@&          ",
"           &@@.@@@.@&           ",
"           &@@@...@&            ",
"           &@@@@@@&             ",
"           &&@@@@&&             ",
"            &&&&%&              ",
"             %  %               ",
"             %  %               ",
"            *% %%               ",
"          *%%%%%%*              ",
"                                ",
"                                ",
"                                ",
"                                ",
"                                ",
"                                ",
"                                ",
"                                "};
