/* XPM */
static char * coin_xpm[] = {
"32 32 62 1",
" 	c #0E1F05",
".	c #226723",
"+	c #17360E",
"@	c #247629",
"#	c #256D24",
"$	c #196823",
"%	c #277B2A",
"&	c #0E4916",
"*	c #166222",
"=	c #1D6523",
"-	c #166623",
";	c #106121",
">	c #1F6723",
",	c #146422",
"'	c #216723",
")	c #176322",
"!	c #1F6523",
"~	c #1C6422",
"{	c #227529",
"]	c #1D6522",
"^	c #0E5E20",
"/	c #0F0F0F",
"(	c #1E1E1E",
"_	c #232323",
":	c #222222",
"<	c #212121",
"[	c #1D1D1D",
"}	c #0E0E0E",
"|	c #1A6824",
"1	c #111111",
"2	c #AA6331",
"3	c #AF7144",
"4	c #E8BF1D",
"5	c #0D0D0D",
"6	c #151515",
"7	c #B57C53",
"8	c #242424",
"9	c #2B2B2B",
"0	c #226623",
"a	c #256723",
"b	c #246623",
"c	c #955629",
"d	c #246723",
"e	c #2E2E2E",
"f	c #1F1F1F",
"g	c #1B1B1B",
"h	c #1A1A1A",
"i	c #0B0B0B",
"j	c #202020",
"k	c #262626",
"l	c #1C1C1C",
"m	c #2D2D2D",
"n	c #196824",
"o	c #080808",
"p	c #090909",
"q	c #2A2A2A",
"r	c #0B5F21",
"s	c #292929",
"t	c #313131",
"u	c #2A7D2B",
"v	c #1A6B25",
"w	c #176723",
"                                ",
"   .+++ +++++ @#$$$$$% &&&&+++* ",
"  =++++ +++++ -#$$$$$% &&&++++* ",
" .+++++ +++++ ;#$$$$$% >++++++* ",
" ++++++ +++++ ,#$$$$$% ++++++') ",
" !!!!!! !!!!~ {%%%%%%{ ~!!!!!!! ",
"                                ",
" +++]^~+++/(_::<[}= &&&&&|>  ++ ",
" ++++ !++1222222222/+++++++  ++ ",
" ++++ !+/234444444325++++++) ++ ",
" ***+ !+6223777773238++++++' ++ ",
"         9222222223<         ++ ",
" % 0aaaab 9<<<<<<<<c9! ##--- ++ ",
" % ++d+d+e7733322<cccf #$$$$ && ",
" % +++++9777333222<2ccf#$$$$ && ",
" % ++++g7743333332222cch$$$$ && ",
"      ic773333([jfk22ccc5$$$    ",
" +++++l473333h/3322m22ccg%%% nn ",
" +++++f27333kopgfq2222ccj    rr ",
" +++++f223333}}3332222cc(++++++ ",
"      :c2333kopgfs222ccc[++++++ ",
" $$ &&<c22233h/3322t2cccf!!!!!! ",
" $$ ++<ccc2333jj::s2cccc:       ",
" $$ &+gcc22233332222cccc[&&&&&& ",
" $$ &++qcc22222222ccccc(+&&&++. ",
" $$ ++++fcccccc22cccccf++++++=  ",
" $$ +++++hfj((j<<f((([++++++.   ",
" $$ +++++                       ",
"  $ &++++ !)    )++++&&&& %$$uv ",
" w$ &&++& !++++++++++++&& %$$$$ ",
" &w &&&++ !++++++++++++&& %$$$$ ",
"                                "};
