/* XPM */
static char * open_salida_xpm[] = {
"32 32 63 1",
" 	c #0E1F05",
".	c #226723",
"+	c #17360E",
"@	c #247629",
"#	c #256D24",
"$	c #196823",
"%	c #277B2A",
"&	c #0E4916",
"*	c #166222",
"=	c #1D6523",
"-	c #166623",
";	c #404040",
">	c #106121",
",	c #1F6723",
"'	c #146422",
")	c #216723",
"!	c #176322",
"~	c #1F6523",
"{	c #161616",
"]	c #030303",
"^	c #000000",
"/	c #010101",
"(	c #070707",
"_	c #1C6422",
":	c #060606",
"<	c #090909",
"[	c #1D6522",
"}	c #0E5E20",
"|	c #0F0F0F",
"1	c #1A6824",
"2	c #101010",
"3	c #080808",
"4	c #414141",
"5	c #040404",
"6	c #424242",
"7	c #0B0B0B",
"8	c #050505",
"9	c #383838",
"0	c #3F3F3F",
"a	c #111111",
"b	c #121212",
"c	c #226623",
"d	c #020202",
"e	c #0A0A0A",
"f	c #141414",
"g	c #2F2F2F",
"h	c #0C0C0C",
"i	c #196824",
"j	c #0D0D0D",
"k	c #171717",
"l	c #0B5F21",
"m	c #292929",
"n	c #181818",
"o	c #0E0E0E",
"p	c #202020",
"q	c #1D1D1D",
"r	c #1C1C1C",
"s	c #131313",
"t	c #151515",
"u	c #191919",
"v	c #2A7D2B",
"w	c #1A6B25",
"x	c #176723",
"                                ",
"   .+++ +++++ @#$$$$$% &&&&+++* ",
"  =++++ +++++ -#$$$$$% &&&++++* ",
" .+++++ ++;;+ >#$$$$$;;,++++++* ",
" ++++++ ++;++ '#$$$$$; ++++++)! ",
" ~~~~~~ ~;;{]^/^^^^(;; _~~~~~~~ ",
"         ;;;:^^^^^^<;;;         ",
" +++[}_+|;;|^^^^^^^<;;(/&1,  ++ ",
" ++++ ~:<;;23<<<<<324;<^5++  ++ ",
" ++++ :/<4;;4666664;6;7^/8+! ++ ",
" ***+]/^<90;4666664;;;7^^//) ++ ",
"    ^^^^<9;a3<<<<<3b;;7^^^^] ++ ",
" % cd^^^<99<^^^^^^^e9;7^^^^d ++ ",
" % +/^^^799fe77777ef997^^^^^ && ",
" % ]^^^^79g999999999997^^^^^/&& ",
" % ]^^^^7gg9999999999g7^^^^^d&& ",
"   /^^^^7ggfe77777ef9g7^^^^^^   ",
" ++d^^^^7gge^^^^^^^eggh^^^^^^ii ",
" ++/^^^^hgg{hjjjjjhkggj^^^^^/ll ",
" +++/^^^jmggggggggggggj^^^^/]++ ",
"    :/^^jmmmmmmmmmmmmmj^^^^d+++ ",
" $$ 5/^^jmmnhjjjjjhnmmo^^^//~~~ ",
" $$ +8/^jpm7^^^^^^^hmp|^^/8     ",
" $$ &+d^2ppq2222222rpp2^/5&&&&& ",
" $$ &++/fppppmmmmmmmpps^/&&&++. ",
" $$ ++++7pppppppppppppt/+++++=  ",
" $$ +++++jppnaaaaaaupp75++++.   ",
" $$ +++++ :3/^^^^^^/e(8         ",
"  $ &++++ ~!    !++++&&&& %$$vw ",
" x$ &&++& ~++++++++++++&& %$$$$ ",
" &x &&&++ ~++++++++++++&& %$$$$ ",
"                                "};
