/* XPM */
static char * suelo_verde_xpm[] = {
"32 32 40 1",
" 	c #0E1F05",
".	c #226723",
"+	c #17360E",
"@	c #247629",
"#	c #256D24",
"$	c #196823",
"%	c #277B2A",
"&	c #0E4916",
"*	c #166222",
"=	c #1D6523",
"-	c #166623",
";	c #106121",
">	c #1F6723",
",	c #146422",
"'	c #216723",
")	c #176322",
"!	c #1F6523",
"~	c #1C6422",
"{	c #227529",
"]	c #1D6522",
"^	c #0E5E20",
"/	c #1F6623",
"(	c #106122",
"_	c #1A6824",
":	c #226623",
"<	c #256723",
"[	c #246623",
"}	c #246723",
"|	c #1D6B25",
"1	c #246923",
"2	c #247829",
"3	c #196824",
"4	c #1F6A24",
"5	c #0B5F21",
"6	c #1C6B25",
"7	c #1D6623",
"8	c #0E6021",
"9	c #2A7D2B",
"0	c #1A6B25",
"a	c #176723",
"                                ",
"   .+++ +++++ @#$$$$$% &&&&+++* ",
"  =++++ +++++ -#$$$$$% &&&++++* ",
" .+++++ +++++ ;#$$$$$% >++++++* ",
" ++++++ +++++ ,#$$$$$% ++++++') ",
" !!!!!! !!!!~ {%%%%%%{ ~!!!!!!! ",
"                                ",
" +++]^~+++++/(((( = &&&&&_>  ++ ",
" ++++ !++++++++++++ +++++++  ++ ",
" ++++ !++++++++++++ +++++++) ++ ",
" ***+ !++++++++++++ +++++++' ++ ",
"                             ++ ",
" % :<<<<[          .+! ##--- ++ ",
" % ++}+}+++++++ +++++! #$$$$ && ",
" % ++++++++++++ +++++! #$$$$ && ",
" % ++++++++++++ +++++! #$$$$ && ",
"                |++++] #$$$$    ",
" ++++++)& %++&& |1++.; 2%%%% 33 ",
" ++++++'= %++&& +4&+.;       55 ",
" ++++++++ %++&& ++6+.; ]+++++++ ",
"          %++&+ ++++.; ++++++++ ",
" $$ &&&++ %++++ 3337]8 ~!!!!!!! ",
" $$ +++++ %++&+                 ",
" $$ &++++ %++++ +++++>_&&&&&&&& ",
" $$ &++++ %++++  ++++&&++&&&++. ",
" $$ +++++ %++++  ++++++++++++=  ",
" $$ +++++ %++++  +++++++++++.   ",
" $$ +++++                       ",
"  $ &++++ !)    )++++&&&& %$$90 ",
" a$ &&++& !++++++++++++&& %$$$$ ",
" &a &&&++ !++++++++++++&& %$$$$ ",
"                                "};
